<svg width="178" height="347" viewBox="0 0 178 347" fill="none" xmlns="http://www.w3.org/2000/svg">
<path d="M103.335 250.248C120.569 250.248 134.54 244.014 134.54 236.325C134.54 228.635 120.569 222.401 103.335 222.401C86.1003 222.401 72.129 228.635 72.129 236.325C72.129 244.014 86.1003 250.248 103.335 250.248Z" fill="#363636"/>
<path d="M122.778 272.062C126.756 271.764 130.227 274.713 130.589 278.671L130.599 278.791L134.457 330.161C134.758 334.179 131.746 337.681 127.728 337.982C123.75 338.281 120.279 335.331 119.917 331.374L119.907 331.254L116.049 279.884C115.748 275.866 118.76 272.364 122.778 272.062Z" fill="#EBBAAA"/>
<path d="M90.6723 271.915C94.6611 271.938 97.8837 275.158 97.9251 279.131L97.9254 279.252L97.6271 330.75C97.6038 334.779 94.3186 338.026 90.2896 338.003C86.3008 337.98 83.0782 334.76 83.0368 330.786L83.0365 330.665L83.3347 279.168C83.3581 275.139 86.6432 271.891 90.6723 271.915Z" fill="#EBBAAA"/>
<path d="M68.4733 210.745H104.95L102.248 309.065L101.438 318.66L80.7673 317.547L73.1618 295.215L68.4733 210.745Z" fill="#363636"/>
<path d="M104.603 212.42H145.088L141.237 299.832L136.834 316.712L115.623 318.52L114.408 310.595L104.603 212.42Z" fill="#363636"/>
<path opacity="0.2" fill-rule="evenodd" clip-rule="evenodd" d="M71.787 247.221L78.937 227.193L83.1345 228.752L75.9845 247.221H71.787Z" fill="white"/>
<path opacity="0.2" fill-rule="evenodd" clip-rule="evenodd" d="M142.542 247.221L135.392 227.193L131.195 228.752L138.344 247.221H142.542Z" fill="white"/>
<path d="M52.6665 345.122C52.6665 333.447 62.1303 323.985 73.8045 323.985H76.9743H79.6895C79.6895 323.985 79.408 328.697 88.5565 328.697C97.7048 328.697 98.9715 323.985 98.9715 323.985H100.126C100.765 323.985 101.282 324.502 101.282 325.14V343.797C101.282 345.395 99.9883 346.687 98.3923 346.687H54.2323C53.3675 346.687 52.6665 345.987 52.6665 345.122Z" fill="#3B3F45"/>
<mask id="mask0" style="mask-type:alpha" maskUnits="userSpaceOnUse" x="52" y="323" width="50" height="24">
<path fill-rule="evenodd" clip-rule="evenodd" d="M52.6665 345.122C52.6665 333.447 62.1303 323.985 73.8045 323.985H76.9743H83.0513H89.1283H95.2053H101.282V343.797C101.282 345.395 99.9883 346.687 98.3923 346.687H54.2323C53.3675 346.687 52.6665 345.987 52.6665 345.122Z" fill="white"/>
</mask>
<g mask="url(#mask0)">
<path d="M58.3049 332.362C54.6599 330.3 56.0894 334.385 52.8142 336.117L45.8787 349.41H101.074C102.423 347.485 107.295 337.495 103.416 336.117C96.2914 333.59 83.7352 342.33 78.5337 342.042C73.3319 341.752 58.4419 343.92 59.3164 339.297C60.3277 333.95 61.6282 334.24 58.3049 332.362Z" fill="#555D65"/>
<path d="M79.1383 335.085C77.4481 335.555 76.0856 335.492 75.3138 334.892C73.3256 333.33 74.5986 330.947 75.1386 330.015C74.1666 331.157 73.2006 332.302 72.4468 333.555C71.2583 335.507 70.7541 337.65 71.5558 339.025C72.9933 341.505 76.4486 340.36 78.6511 339.362L99.0883 330.107L79.1383 335.085Z" fill="#7F8389"/>
</g>
<path d="M72.4941 323.172C72.7716 322.802 73.2878 322.717 73.6677 322.97L74.8712 323.828C74.9558 323.889 75.0304 323.943 75.0879 323.986L75.1204 324.01C76.6734 325.175 77.5222 326.235 77.5222 327.592C77.5222 328.152 77.0018 328.561 76.4639 328.438L76.4191 328.426L69.9048 326.582L72.0455 330.025C72.4652 330.7 71.8323 331.528 71.081 331.319L71.0392 331.306L64.7045 329.229L66.9614 332.441C67.2272 332.82 67.1483 333.337 66.7899 333.62L66.7504 333.649C66.3721 333.915 65.855 333.836 65.5721 333.478L65.5427 333.438L61.7859 328.091C61.315 327.42 61.9495 326.541 62.7231 326.756L62.7654 326.769L69.3143 328.916L67.2498 325.595C66.8393 324.935 67.4372 324.118 68.1801 324.292L68.2223 324.303L75.0643 326.241L75.0516 326.228C74.815 325.987 74.5211 325.733 74.1693 325.465L74.0801 325.397C73.8073 325.193 72.8442 324.519 72.6672 324.386C72.2842 324.098 72.2067 323.555 72.4941 323.172Z" fill="#7F8389"/>
<path fill-rule="evenodd" clip-rule="evenodd" d="M69.0258 317.173C69.6345 316.341 70.5159 315.89 71.5983 315.89C73.8199 315.89 75.4995 317.8 75.4995 320.367L75.5011 320.678L75.5167 321.632C75.5191 321.786 75.5202 321.902 75.5203 322.015L75.5181 322.311C75.5093 322.784 75.4741 323.13 75.3981 323.42C75.2967 323.806 75.1211 324.084 74.8564 324.26C74.5697 324.456 74.1683 324.554 73.6211 324.554C72.4738 324.554 71.1049 324.128 70.0385 323.42C68.836 322.621 68.1306 321.553 68.1306 320.367C68.1306 319.083 68.4425 317.966 69.0258 317.173ZM73.7656 320.367C73.7656 318.711 72.8094 317.624 71.5983 317.624C71.0709 317.624 70.7083 317.81 70.4238 318.198C70.0763 318.671 69.8645 319.429 69.8645 320.367C69.8645 320.904 70.2397 321.472 70.9977 321.975C71.7842 322.497 72.8205 322.82 73.6211 322.82C73.6579 322.82 73.692 322.82 73.7234 322.818L73.7511 322.817L73.7539 322.796C73.7723 322.647 73.7833 322.445 73.7859 322.177L73.7864 322.095C73.7866 322.029 73.7864 321.965 73.7859 321.894L73.7672 320.692L73.7656 320.367Z" fill="#7F8389"/>
<path fill-rule="evenodd" clip-rule="evenodd" d="M75.2735 322.534L75.5896 321.853L75.7878 321.418C76.5722 319.751 78.2545 319.015 79.7368 319.676C80.471 320.003 80.9338 320.571 81.0992 321.313C81.2583 322.022 81.1366 322.864 80.7532 323.725C80.4002 324.517 79.6043 325.02 78.5494 325.193C77.6144 325.347 76.5576 325.219 75.7761 324.871C75.397 324.702 75.1455 324.509 75.011 324.275L75.0123 324.274L74.9989 324.251C74.9743 324.209 74.9634 324.183 74.9434 324.126L74.9325 324.096C74.918 324.041 74.9126 324.021 74.9092 324.005L74.8997 323.947C74.8844 323.832 74.8876 323.71 74.9099 323.574C74.95 323.326 75.0482 323.043 75.2209 322.652C75.2391 322.611 75.2555 322.574 75.2735 322.534ZM76.8272 323.307L76.7875 323.397C77.2026 323.515 77.7148 323.557 78.1764 323.495L78.268 323.482C78.7957 323.395 79.0829 323.214 79.1695 323.02C79.4105 322.479 79.4784 322.008 79.4074 321.691C79.3609 321.483 79.2628 321.363 79.0309 321.259C78.4428 320.997 77.7302 321.317 77.3356 322.203L77.2806 322.325L76.8272 323.307Z" fill="#7F8389"/>
<path d="M163.032 344.997C163.032 333.322 153.569 323.86 141.894 323.86H138.725H136.009C136.009 323.86 136.291 328.572 127.142 328.572C117.994 328.572 116.727 323.86 116.727 323.86H115.573C114.934 323.86 114.417 324.377 114.417 325.015V343.672C114.417 345.27 115.711 346.562 117.307 346.562H161.467C162.331 346.562 163.032 345.862 163.032 344.997Z" fill="#3B3F45"/>
<mask id="mask1" style="mask-type:alpha" maskUnits="userSpaceOnUse" x="114" y="323" width="50" height="24">
<path fill-rule="evenodd" clip-rule="evenodd" d="M163.032 344.997C163.032 333.322 153.569 323.86 141.894 323.86H138.725H132.648H126.571H120.494H114.417V343.672C114.417 345.27 115.711 346.562 117.307 346.562H161.467C162.331 346.562 163.032 345.862 163.032 344.997Z" fill="white"/>
</mask>
<g mask="url(#mask1)">
<path d="M157.394 332.237C161.039 330.175 159.609 334.26 162.884 335.992L169.82 349.285H114.625C113.276 347.36 108.403 337.37 112.282 335.992C119.407 333.465 131.964 342.205 137.165 341.917C142.367 341.627 157.257 343.795 156.382 339.172C155.371 333.825 154.071 334.115 157.394 332.237Z" fill="#555D65"/>
<path d="M136.117 335.085C137.807 335.555 139.169 335.492 139.941 334.892C141.929 333.33 140.656 330.947 140.116 330.015C141.088 331.157 142.054 332.302 142.808 333.555C143.997 335.507 144.501 337.65 143.699 339.025C142.261 341.505 138.806 340.36 136.604 339.362L116.167 330.107L136.117 335.085Z" fill="#7F8389"/>
</g>
<path d="M141.991 322.874C142.374 322.587 142.917 322.664 143.205 323.047C143.492 323.43 143.415 323.973 143.032 324.261L142.912 324.348C142.607 324.567 141.914 325.054 141.65 325.249L141.619 325.272C141.266 325.537 140.969 325.786 140.726 326.024L140.634 326.116L147.476 324.178C148.225 323.966 148.844 324.767 148.471 325.433L148.449 325.47L146.384 328.791L152.933 326.644C153.712 326.388 154.368 327.251 153.937 327.929L153.913 327.966L150.156 333.313C149.881 333.705 149.34 333.799 148.948 333.524C148.57 333.258 148.469 332.745 148.71 332.357L148.737 332.316L150.994 329.104L144.66 331.181C143.904 331.429 143.25 330.617 143.631 329.937L143.653 329.9L145.794 326.457L139.28 328.301C138.741 328.454 138.206 328.065 138.178 327.514L138.177 327.467C138.177 326.139 138.99 325.094 140.482 323.958L140.647 323.834C141.006 323.571 141.854 322.977 141.991 322.874Z" fill="#7F8389"/>
<path fill-rule="evenodd" clip-rule="evenodd" d="M140.2 320.153C140.238 317.63 141.905 315.765 144.101 315.765C145.183 315.765 146.064 316.216 146.672 317.046C147.256 317.841 147.568 318.958 147.568 320.242C147.568 321.428 146.863 322.496 145.66 323.294C144.594 324.003 143.225 324.429 142.078 324.429C141.531 324.429 141.129 324.331 140.853 324.142C140.578 323.959 140.402 323.681 140.301 323.295C140.225 323.005 140.19 322.659 140.181 322.186L140.178 321.932C140.178 321.862 140.179 321.792 140.179 321.715L140.188 321.182L140.188 321.156C140.193 320.887 140.196 320.698 140.198 320.525L140.2 320.153ZM145.274 318.072C144.991 317.685 144.628 317.499 144.101 317.499C142.889 317.499 141.933 318.586 141.933 320.242C141.933 320.395 141.932 320.533 141.93 320.693L141.922 321.172L141.922 321.199C141.917 321.439 141.914 321.601 141.913 321.736L141.913 322.052C141.916 322.32 141.926 322.522 141.945 322.671L141.948 322.692L141.975 322.693L142.078 322.695C142.878 322.695 143.915 322.372 144.701 321.85C145.459 321.347 145.834 320.779 145.834 320.242C145.834 319.304 145.622 318.546 145.274 318.072Z" fill="#7F8389"/>
<path fill-rule="evenodd" clip-rule="evenodd" d="M135.962 319.55C135.228 319.878 134.765 320.446 134.599 321.188C134.441 321.897 134.562 322.739 134.946 323.6C135.299 324.392 136.095 324.895 137.151 325.068C138.084 325.222 139.141 325.094 139.922 324.747L139.996 324.713C140.165 324.632 140.307 324.546 140.422 324.452L140.459 324.42L140.465 324.417C140.477 324.407 140.487 324.397 140.498 324.385L140.514 324.371C140.585 324.301 140.643 324.227 140.688 324.149L140.684 324.147L140.704 324.122L140.769 323.953C140.79 323.895 140.792 323.883 140.795 323.85L140.801 323.808C140.814 323.699 140.811 323.582 140.789 323.447C140.752 323.218 140.664 322.958 140.514 322.61L140.411 322.377C140.371 322.289 140.321 322.182 140.23 321.988L140.217 321.962L139.985 321.456L139.947 321.372C139.179 319.649 137.467 318.88 135.962 319.55ZM138.363 322.078L138.488 322.353C138.527 322.437 138.577 322.546 138.656 322.715L138.669 322.743L138.858 323.151L138.911 323.272C138.469 323.398 137.916 323.437 137.432 323.357C136.903 323.27 136.616 323.089 136.529 322.895C136.289 322.354 136.221 321.883 136.291 321.567C136.338 321.358 136.436 321.238 136.669 321.134C137.256 320.872 137.969 321.193 138.363 322.078ZM139.418 323.15L139.936 322.85C139.508 322.963 139.442 322.98 139.384 323.04L139.351 323.078L139.418 323.15Z" fill="#7F8389"/>
<path d="M150.006 148.714C153.759 146.255 158.795 147.304 161.255 151.057C166.335 158.811 169.385 170.944 170.606 185.256C171.658 197.601 171.182 210.536 169.365 219.241C168.448 223.633 164.144 226.451 159.752 225.534C155.403 224.627 152.598 220.399 153.431 216.053L153.458 215.921C154.922 208.904 155.342 197.513 154.414 186.637C153.413 174.896 150.983 165.153 147.76 160.114L147.662 159.963C145.203 156.209 146.252 151.173 150.006 148.714Z" fill="#EBBAAA"/>
<path d="M15.4079 106.82C19.7768 106.015 23.9727 108.867 24.845 113.206L24.8704 113.338L30.4753 143.765L91.3438 135.897C95.7496 135.327 99.7866 138.4 100.425 142.78L100.443 142.913C101.013 147.319 97.9398 151.356 93.5602 151.994L93.4271 152.013L24.9215 160.868C20.6818 161.416 16.751 158.586 15.9137 154.409L15.8893 154.282L8.88929 116.282C8.07636 111.869 10.9948 107.633 15.4079 106.82Z" fill="#EBBAAA"/>
<path d="M85.1967 120.698C98.8849 118.709 104.199 131.612 103.976 145.442C103.768 158.339 92.7614 168.41 79.8967 167.475L45.7057 164.989L36.2684 128.964L85.1967 120.698Z" fill="#FE4066"/>
<path d="M149.732 126.634C140.576 116.267 124.313 116.563 115.541 127.258C107.36 137.231 109.245 152.03 119.663 159.634L147.353 179.846L177.845 158.467L149.732 126.634Z" fill="#FE4066"/>
<path d="M68.7285 145.409C69.5537 130.45 81.5505 118.674 96.2325 118.413L115.735 118.065C131.091 117.792 143.805 130.176 144.25 145.84L145.376 185.462L145.858 235.531C145.858 235.531 120.144 237.061 105.644 237.061C91.1442 237.061 65.8607 235.531 65.8607 235.531L66.4427 186.854L68.7285 145.409Z" fill="#FE4066"/>
<path d="M105.566 148.972C115.332 148.802 123.112 140.746 122.941 130.979C122.771 121.213 114.715 113.433 104.948 113.604C95.1817 113.774 87.4025 121.83 87.573 131.597C87.7434 141.363 95.7991 149.143 105.566 148.972Z" fill="#FE4066"/>
<path fill-rule="evenodd" clip-rule="evenodd" d="M106.125 190C112.821 190 118.25 184.571 118.25 177.875C118.25 171.179 112.821 165.75 106.125 165.75C99.4285 165.75 94 171.179 94 177.875C94 184.571 99.4285 190 106.125 190Z" fill="#FE4066"/>
<mask id="mask2" style="mask-type:alpha" maskUnits="userSpaceOnUse" x="95" y="167" width="22" height="22">
<path fill-rule="evenodd" clip-rule="evenodd" d="M105.959 188.748C111.846 188.748 116.619 183.975 116.619 178.088C116.619 172.201 111.846 167.428 105.959 167.428C100.072 167.428 95.2991 172.201 95.2991 178.088C95.2991 183.975 100.072 188.748 105.959 188.748Z" fill="white"/>
</mask>
<g mask="url(#mask2)">
<path d="M103.174 165.103H114.741L104.741 191.073H93.1738L103.174 165.103Z" fill="#FE4066"/>
</g>
<rect x="0.282471" y="100.978" width="22.2033" height="23.862" rx="8.25" transform="rotate(-10.4302 0.282471 100.978)" fill="#EBBAAA"/>
<rect x="13.0767" y="91.7548" width="7.9622" height="19.6383" rx="3.9811" transform="rotate(-10.4469 13.0767 91.7548)" fill="#EBBAAA"/>
<path d="M163.277 202.045L154.168 204.525L154.168 207.232H161.2L171.157 212.42L172.072 206.729L163.277 202.045Z" fill="black"/>
<path d="M162.25 206.419L163.314 203.25L171.822 207.721L171.407 211.219L162.25 206.419Z" fill="white" fill-opacity="0.3"/>
<rect x="93.329" y="110.372" width="23.498" height="30.7078" rx="11.749" transform="rotate(-1 93.329 110.372)" fill="#EBBAAA"/>
<path d="M136.891 89.2067C144.495 89.2067 149.996 80.5019 150.659 74.0502C151.323 67.5984 144.495 61.0817 136.891 61.0817C129.288 61.0817 123.124 66.8879 123.124 74.0502C123.124 81.2124 129.288 89.2067 136.891 89.2067Z" fill="#EBBAAA"/>
<path d="M75.2675 90.9441C67.6638 90.9441 62.1633 82.2393 61.4998 75.7876C60.8363 69.3358 67.6638 62.8191 75.2675 62.8191C82.8713 62.8191 89.0353 68.6253 89.0353 75.7876C89.0353 82.9498 82.8713 90.9441 75.2675 90.9441Z" fill="#EBBAAA"/>
<path d="M68.6755 54.2639C68.6755 31.8611 85.5445 13.7 106.354 13.7C127.163 13.7 144.032 31.8611 144.032 54.2639L141.481 85.6231C139.363 99.3289 134.443 110.703 125.61 116.266C121.859 118.628 122.388 119.943 117.14 119.943H95.286C88.465 119.943 88.3353 117.43 84.073 113.329C77.334 106.845 73.4323 96.3916 71.2258 85.6234L68.6755 54.2639Z" fill="#F4D4C9"/>
<path d="M79.5888 58.9452L86.3199 56.1653L101.331 60.9483C102.611 61.3561 103.318 62.724 102.91 64.0036C102.509 65.2612 101.181 65.9656 99.9208 65.6025L99.8545 65.5824L86.5349 61.3384L81.4453 63.4405C80.2257 63.9442 78.8319 63.3829 78.2972 62.1859L78.2694 62.1211C77.7657 60.9016 78.327 59.5077 79.524 58.973L79.5888 58.9452Z" fill="#393939"/>
<path d="M111.252 60.9483L126.263 56.1653L132.994 58.9452C134.236 59.4579 134.826 60.8798 134.314 62.1211C133.81 63.3407 132.429 63.9323 131.203 63.4665L131.138 63.4405L126.048 61.3384L112.728 65.5824C111.471 65.9831 110.128 65.3073 109.695 64.0693L109.673 64.0036C109.272 62.746 109.948 61.4032 111.186 60.9703L111.252 60.9483Z" fill="#393939"/>
<path d="M103.659 67.6855L108.115 68.7997L104.506 83.2358C104.164 84.6048 105.178 85.9319 106.578 85.9725L106.644 85.9734H110.895V90.5668H106.644C102.266 90.5668 99.0422 86.4937 100.019 82.2502L100.05 82.1215L103.659 67.6855Z" fill="#EBBAAA"/>
<path d="M84.3181 70.2405L84.3482 70.2302C87.9801 69.0035 91.5933 68.988 96.1751 70.9555C96.9771 71.2999 97.348 72.2292 97.0036 73.0312C96.6592 73.8332 95.7299 74.2042 94.9279 73.8598C91.1672 72.2448 88.375 72.2336 85.4853 73.1829L85.325 73.2368C85.0577 73.3318 83.6756 73.841 83.3071 73.937C82.4625 74.157 81.5994 73.6506 81.3794 72.806C81.1643 71.9801 81.6436 71.1367 82.4546 70.8939L82.5104 70.8783C82.7133 70.8255 83.9852 70.3556 84.3181 70.2405Z" fill="#393939"/>
<path d="M115.54 71.4555C120.066 69.512 123.647 69.5035 127.234 70.6859L127.367 70.7302C127.634 70.8206 128.909 71.2919 129.181 71.3717L129.205 71.3783C130.049 71.5983 130.556 72.4613 130.336 73.3059C130.116 74.1506 129.253 74.657 128.408 74.437L128.335 74.4167C127.858 74.2761 126.488 73.7696 126.355 73.7248C123.421 72.7336 120.602 72.7214 116.787 74.3598C115.985 74.7042 115.056 74.3332 114.711 73.5312C114.367 72.7292 114.738 71.7999 115.54 71.4555Z" fill="#393939"/>
<path fill-rule="evenodd" clip-rule="evenodd" d="M92.3857 94.6106V99.5606C92.3857 107.181 98.5632 113.356 106.181 113.356C113.801 113.356 119.976 107.181 119.976 99.5606V94.6106H92.3857Z" fill="#393939"/>
<mask id="mask3" style="mask-type:alpha" maskUnits="userSpaceOnUse" x="92" y="94" width="28" height="20">
<path fill-rule="evenodd" clip-rule="evenodd" d="M92.4082 94.6056C92.3932 94.8606 92.3857 95.1183 92.3857 95.3758V100.197C92.3857 107.466 98.5632 113.356 106.181 113.356C113.801 113.356 119.976 107.466 119.976 100.197V95.3758C119.976 95.1183 119.968 94.8606 119.953 94.6056H92.4082Z" fill="white"/>
</mask>
<g mask="url(#mask3)">
<path d="M106.181 117.779C110.775 117.779 114.5 115.752 114.5 113.251C114.5 110.75 110.775 108.723 106.181 108.723C101.586 108.723 97.8615 110.75 97.8615 113.251C97.8615 115.752 101.586 117.779 106.181 117.779Z" fill="#FF6C6C"/>
</g>
<rect x="92.3857" y="94.6106" width="27.5907" height="5.68665" fill="white"/>
<path d="M95.2425 4.63733C101.432 2.91378 101.914 -0.220667 110.243 0.0122927C121.798 0.335501 127.084 5.68602 129.744 10.0365C132.41 9.27774 136.418 10.8864 140.493 13.3873C145.868 16.6854 147.867 22.5123 148.867 24.1373C150.998 27.6 151.482 33.2652 150.887 39.6801L150.867 39.8872C150.367 45.0872 148.993 53.9707 147.868 59.1372L147.743 59.0832C147.033 58.7823 145.714 58.2931 145.243 58.3872C144.618 58.5122 145.118 66.1373 143.368 66.1373C141.618 66.1373 143.368 51.5122 142.118 49.3872C140.868 47.2622 141.743 41.7625 134.993 38.3872L134.041 37.9123C130.37 36.0642 126.556 33.6888 125.661 23.5445C122.933 24.3714 118.995 22.5724 116.993 23.7623C113.243 25.991 114.118 32.2622 104.243 34.5122C96.2427 36.335 87.2427 35.0122 81.8677 38.1372C78.0358 40.3652 77.6265 46.4989 73.3871 49.2943L73.2427 49.3872C68.9552 52.0822 68.7494 59.099 68.5076 61.0257L68.4927 61.1372C68.2427 62.8872 68.8677 65.2623 67.7427 65.2623C66.6439 65.2623 66.7376 61.2076 66.7425 59.9707L66.7427 59.8872C66.7427 59.3872 65.3677 60.8872 63.8677 61.1372C62.3677 61.3872 61.3675 54.0122 62.9927 45.7622C63.9832 40.734 54.2426 26.6372 71.2425 10.8873C79.146 3.56493 88.1472 6.613 95.2425 4.63733Z" fill="#45332B"/>
<path d="M69.7089 44.514C71.3377 40.4418 80.2061 37.5095 86.2612 38.3114L86.4438 38.3368L86.0094 41.3052C81.1633 40.596 73.5067 43.0971 72.4943 45.6281C71.9968 46.8719 71.1673 48.1969 70.0368 49.6314C69.1584 50.7459 68.1156 51.9058 66.8812 53.1668L66.5531 53.4993C65.3034 54.7505 62.0042 57.8896 61.5655 58.3527C60.9419 59.0109 60.8503 59.6786 61.2102 60.5011C61.5889 61.3667 62.4486 62.2829 63.5352 62.979L63.6411 63.0456L62.062 65.5964C60.4425 64.5939 59.119 63.206 58.4617 61.7035C57.635 59.814 57.9037 57.8558 59.3876 56.2894L59.4983 56.1757C60.2904 55.3761 63.5514 52.2717 64.5585 51.2504C65.803 49.9882 66.836 48.8461 67.6806 47.7745C68.6482 46.5467 69.334 45.4512 69.7089 44.514Z" fill="#382922"/>
<path d="M111.66 14.4789C117.097 13.9392 123.513 14.0762 128.807 14.6675L129.15 14.7067L128.803 17.6865C123.646 17.0857 117.281 16.9358 111.956 17.4643L111.56 17.505C105.137 18.1892 100.702 19.82 99.1084 22.2654C96.6135 26.0947 92.253 28.9198 86.4248 31.0712C84.1699 31.9036 81.8173 32.5931 79.1781 33.2391L78.6425 33.3684C77.3179 33.6817 74.1001 34.3958 73.6002 34.5243L71.8289 34.9835C70.8218 35.2493 70.3648 35.3861 69.6059 35.6341C65.3961 37.0096 63.2192 38.7687 63.1 41.3897L63.0032 43.5889C62.8736 46.3734 62.7465 47.7808 62.4512 49.1655L62.4183 49.3165C61.9351 51.4906 61.0466 53.0087 59.5135 53.8515L59.4226 53.9003L58.0306 51.2428L58.1086 51.1999C59.3146 50.5019 59.7552 48.626 60.01 43.3563L60.1031 41.2535C60.2081 38.9446 61.2759 37.0508 63.1158 35.564C64.5037 34.4426 66.2669 33.5857 68.4724 32.8491L69.0232 32.6694C69.7995 32.4208 70.3568 32.2648 71.7244 31.91L72.9213 31.6017C73.6471 31.4227 76.8097 30.7204 78.0084 30.4356L78.1291 30.4067C80.8046 29.7617 83.1571 29.0796 85.3859 28.2569C90.5981 26.3328 94.4242 23.8724 96.5152 20.7483L96.5948 20.6278C98.8763 17.126 104.178 15.2215 111.66 14.4789Z" fill="#382922"/>
<path d="M123.834 27.0142L126.619 28.1284C126.189 29.2041 125.771 30.9053 125.584 32.426C125.485 33.2357 125.454 33.9594 125.497 34.5324C125.531 35.0009 125.613 35.3134 125.676 35.4192L125.684 35.4315L125.693 35.4349L125.727 35.4542C125.805 35.4964 125.919 35.5401 126.073 35.5819L126.133 35.5974C126.478 35.6845 126.885 35.7416 127.647 35.8144L128.837 35.9256C129.966 36.0365 130.537 36.1206 131.318 36.2974L131.388 36.3132C133.408 36.7772 135.065 37.6396 136.387 39.103L136.481 39.2085L134.223 41.184C133.343 40.1788 132.212 39.5807 130.716 39.2371L130.543 39.1984C129.846 39.0463 129.279 38.9771 127.897 38.8502L127.327 38.7975C126.434 38.7118 125.928 38.6395 125.4 38.5065C124.476 38.2738 123.762 37.8837 123.267 37.2083C121.919 35.3698 122.474 30.5663 123.747 27.2364L123.834 27.0142Z" fill="#382922"/>
</svg>
