<svg width="118" height="155" viewBox="0 0 118 155" fill="none" xmlns="http://www.w3.org/2000/svg">
<path d="M96.2487 103.147C92.7449 127.207 72.0461 143.747 50.3739 140.591C28.7018 137.435 13.58 115.678 17.0837 91.6187C20.5875 67.5592 41.2863 51.0192 62.9585 54.1753C84.6307 57.3314 99.7524 79.0878 96.2487 103.147Z" stroke="white" stroke-width="5"/>
<path d="M10.9736 38.6912C26.764 41.3335 32.7334 53.2251 33.7442 58.8406C57.2942 44.1777 76.3658 54.0668 82.9579 60.8442C82.6557 61.3636 86.4499 57.3248 104.044 37.0144C121.639 16.7041 99.4588 30.2815 86.1694 39.6089C83.5039 42.4434 80.4183 43.8674 89.3999 26.8883C98.3816 9.90924 84.9057 21.6526 77.0451 29.6466C76.3149 31.361 74.6922 30.4916 74.043 13.2992C73.2314 -8.19126 62.8464 35.0222 62.694 32.5268C62.5416 30.0315 60.351 35.1746 56.3317 10.3735C53.1162 -9.46741 53.2446 17.2411 53.7107 33.0755C53.6091 31.4119 51.4203 25.1003 43.4778 13.1623C35.5353 1.22425 40.9202 20.4985 44.6055 31.6278C43.4753 29.5262 39.2087 23.642 31.1839 16.9187C23.1591 10.1953 30.3445 22.3132 34.9403 29.2125C32.1465 27.2125 25.4427 22.9799 20.9778 22.0504C16.5128 21.1209 19.8844 23.286 22.1283 24.4848C25.0783 26.3083 30.2651 31.4016 27.4124 37.1863C27.7896 35.1595 -8.76447 35.3883 10.9736 38.6912Z" fill="white" stroke="white"/>
<path d="M30.0368 71.5599C32.39 80.8756 35.5509 75.4842 36.8372 71.624" stroke="white" stroke-width="2"/>
<path d="M52.5672 63.1708C54.9204 72.4865 58.0814 67.0951 59.3677 63.2349" stroke="white" stroke-width="2"/>
<path d="M69.0862 71.1787C71.4393 80.4944 74.6003 75.103 75.8866 71.2428" stroke="white" stroke-width="2"/>
<path d="M59.8973 84.7641C62.2504 94.0798 65.4114 88.6884 66.6977 84.8282" stroke="white" stroke-width="2"/>
<path d="M63.928 101.55C66.2811 110.865 69.4421 105.474 70.7284 101.614" stroke="white" stroke-width="2"/>
<path d="M38.9972 87.0424C41.3504 96.3581 44.5113 90.9667 45.7977 87.1065" stroke="white" stroke-width="2"/>
<path d="M22.6385 98.0601C24.9917 107.376 28.1526 101.984 29.4389 98.1242" stroke="white" stroke-width="2"/>
<path d="M29.7246 115.661C32.0778 124.977 35.2387 119.585 36.525 115.725" stroke="white" stroke-width="2"/>
<path d="M43.028 103.828C45.3812 113.144 48.5421 107.752 49.8284 103.892" stroke="white" stroke-width="2"/>
<path d="M78.5343 94.6464C80.8875 103.962 84.0485 98.5706 85.3348 94.7105" stroke="white" stroke-width="2"/>
<path d="M69.0788 120.27C71.432 129.586 74.5929 124.195 75.8792 120.335" stroke="white" stroke-width="2"/>
<path d="M45.4892 127.722C47.8424 137.038 51.0033 131.647 52.2896 127.786" stroke="white" stroke-width="2"/>
<path d="M55.8591 117.07C58.2123 126.386 61.3732 120.995 62.6595 117.134" stroke="white" stroke-width="2"/>
</svg>
