<svg width="144" height="100" viewBox="0 0 251 182" fill="none" xmlns="http://www.w3.org/2000/svg">
<path d="M197.512 129.523C197.512 131.151 196.828 132.681 195.461 134.113C194.159 135.546 192.434 136.848 190.285 138.02C188.202 139.191 185.858 140.233 183.254 141.145C180.65 141.991 178.078 142.707 175.539 143.293C173 143.944 170.591 144.432 168.312 144.758C166.099 145.083 164.341 145.246 163.039 145.246C161.802 145.246 160.467 145.116 159.035 144.855C157.668 144.66 156.529 144.172 155.617 143.391C155.096 143 154.641 142.121 154.25 140.754C153.859 139.387 153.469 137.759 153.078 135.871C152.753 133.983 152.46 131.965 152.199 129.816C151.939 127.603 151.711 125.454 151.516 123.371C151.385 121.288 151.255 119.367 151.125 117.609C151.06 115.852 151.027 114.484 151.027 113.508C151.027 111.88 151.06 109.927 151.125 107.648C151.255 105.305 151.418 102.831 151.613 100.227C151.809 97.5573 152.069 94.8555 152.395 92.1211C152.72 89.3867 153.078 86.8151 153.469 84.4062C153.924 81.9323 154.445 79.7188 155.031 77.7656C155.682 75.8125 156.366 74.2826 157.082 73.1758C158.319 71.418 159.882 70.5391 161.77 70.5391C163.072 70.5391 164.178 70.9948 165.09 71.9062C166.001 72.7526 166.717 73.8919 167.238 75.3242C167.824 76.6914 168.247 78.2539 168.508 80.0117C168.833 81.7044 169.061 83.3971 169.191 85.0898C169.322 86.7826 169.387 88.3451 169.387 89.7773C169.387 91.2096 169.387 92.349 169.387 93.1953C169.387 98.2734 169.257 103.319 168.996 108.332C168.801 113.28 168.703 118.293 168.703 123.371V127.18C171.633 126.268 174.823 125.422 178.273 124.641C181.724 123.794 185.012 123.371 188.137 123.371C189.243 123.371 190.35 123.436 191.457 123.566C192.629 123.697 193.638 123.99 194.484 124.445C195.396 124.836 196.112 125.454 196.633 126.301C197.219 127.082 197.512 128.156 197.512 129.523ZM245.266 90.6562C245.266 94.1719 244.484 97.6224 242.922 101.008C241.424 104.393 239.406 107.453 236.867 110.188C234.328 112.857 231.431 115.07 228.176 116.828C224.921 118.521 221.568 119.465 218.117 119.66C218.052 120.832 217.987 122.329 217.922 124.152C217.922 125.91 217.824 127.766 217.629 129.719C217.434 131.672 217.141 133.625 216.75 135.578C216.424 137.531 215.904 139.289 215.188 140.852C214.536 142.414 213.658 143.684 212.551 144.66C211.509 145.637 210.207 146.125 208.645 146.125C206.822 146.125 205.357 145.507 204.25 144.27C203.208 143.098 202.395 141.665 201.809 139.973C201.288 138.28 200.93 136.522 200.734 134.699C200.539 132.811 200.409 131.216 200.344 129.914C200.214 128.026 200.116 126.171 200.051 124.348C200.051 122.525 200.051 120.669 200.051 118.781C200.051 117.935 200.051 116.372 200.051 114.094C200.051 111.75 200.051 109.113 200.051 106.184C200.116 103.189 200.181 100.096 200.246 96.9062C200.311 93.651 200.409 90.6562 200.539 87.9219C200.669 85.1224 200.799 82.7461 200.93 80.793C201.125 78.8398 201.353 77.7005 201.613 77.375C201.678 77.3099 201.874 77.1797 202.199 76.9844C202.525 76.724 202.883 76.4961 203.273 76.3008C203.664 76.0404 204.022 75.8125 204.348 75.6172C204.673 75.4219 204.901 75.2917 205.031 75.2266C208.026 73.5339 211.314 72.069 214.895 70.832C218.475 69.5951 222.023 68.9766 225.539 68.9766C228.534 68.9766 231.236 69.5951 233.645 70.832C236.118 72.0039 238.202 73.599 239.895 75.6172C241.652 77.5703 242.987 79.8815 243.898 82.5508C244.81 85.1549 245.266 87.8568 245.266 90.6562ZM228.371 92.9023C228.371 91.6003 228.046 90.4609 227.395 89.4844C226.809 88.5078 225.799 88.0195 224.367 88.0195C223.13 88.0195 221.893 88.2799 220.656 88.8008C219.419 89.2565 218.28 89.7448 217.238 90.2656C217.434 92.5443 217.596 94.7578 217.727 96.9062C217.922 99.0547 217.954 101.268 217.824 103.547C218.866 103.026 220.005 102.44 221.242 101.789C222.479 101.073 223.618 100.292 224.66 99.4453C225.702 98.599 226.581 97.6549 227.297 96.6133C228.013 95.5065 228.371 94.2695 228.371 92.9023Z" fill="white"/>
<path d="M126.325 101.077C132.199 124.67 119.31 147.819 98.0581 153.11C76.8059 158.401 54.5683 143.996 48.6949 120.403C42.8214 96.8095 55.7101 73.6601 76.9623 68.3695C98.2144 63.0789 120.452 77.4836 126.325 101.077Z" stroke="white" stroke-width="5"/>
<path d="M22.9865 73.7365C38.6008 70.199 48.6307 78.9422 51.6939 83.756C67.9323 61.2635 89.3289 63.1891 97.9974 66.9636C97.9145 67.5587 99.8955 62.3835 108.483 36.921C117.07 11.4585 101.688 32.4275 92.9235 46.0948C91.5307 49.7278 89.2147 52.2148 91.0935 33.0986C92.9722 13.9824 84.9506 29.956 80.7049 40.3324C80.6787 42.1956 78.8476 42.0058 71.7327 26.3413C62.8391 6.76061 69.6016 50.6869 68.5151 48.4353C67.4286 46.1838 67.35 51.7734 54.2334 30.3443C43.7401 13.2011 53.9786 37.8696 60.4095 52.3468C59.6851 50.8457 55.2681 45.834 43.3945 37.7954C31.521 29.7569 43.8073 45.5537 51.4347 54.4569C49.5924 52.9402 43.4144 49.1113 33.4406 45.9298C23.4667 42.7483 34.7077 51.2402 41.575 55.8838C38.2317 55.0914 30.424 53.7145 25.9397 54.546C21.4555 55.3775 25.3961 56.1037 27.9269 56.3629C31.3478 56.9328 38.0777 59.6811 37.6295 66.1153C37.2106 64.0967 3.46869 78.1585 22.9865 73.7365Z" fill="white" stroke="white"/>
<path d="M53.082 96.9317C58.7894 104.661 59.6719 98.4741 59.3997 94.4144" stroke="white" stroke-width="2"/>
<path d="M70.7541 80.6315C76.4615 88.361 77.3439 82.1739 77.0718 78.1142" stroke="white" stroke-width="2"/>
<path d="M89.0755 81.7834C94.7829 89.513 95.6654 83.3259 95.3932 79.2661" stroke="white" stroke-width="2"/>
<path d="M85.7191 97.8376C91.4265 105.567 92.309 99.38 92.0368 95.3203" stroke="white" stroke-width="2"/>
<path d="M95.8092 111.844C101.517 119.574 102.399 113.387 102.127 109.327" stroke="white" stroke-width="2"/>
<path d="M67.2406 107.865C72.948 115.594 73.8305 109.407 73.5583 105.348" stroke="white" stroke-width="2"/>
<path d="M56.276 124.259C61.9834 131.989 62.8659 125.802 62.5937 121.742" stroke="white" stroke-width="2"/>
<path d="M69.5027 137.863C75.2101 145.592 76.0925 139.405 75.8204 135.346" stroke="white" stroke-width="2"/>
<path d="M77.3307 121.872C83.0381 129.601 83.9206 123.414 83.6484 119.354" stroke="white" stroke-width="2"/>
<path d="M106.711 99.9216C112.418 107.651 113.301 101.464 113.029 97.4043" stroke="white" stroke-width="2"/>
<path d="M107.669 127.218C113.377 134.947 114.259 128.76 113.987 124.7" stroke="white" stroke-width="2"/>
<path d="M88.6618 143.052C94.3692 150.781 95.2517 144.594 94.9795 140.535" stroke="white" stroke-width="2"/>
<path d="M94.2226 129.265C99.93 136.995 100.813 130.808 100.54 126.748" stroke="white" stroke-width="2"/>
</svg>
