<svg width="193" height="347" viewBox="0 0 193 347" fill="none" xmlns="http://www.w3.org/2000/svg">
<path d="M118.335 250.248C135.569 250.248 149.54 244.014 149.54 236.325C149.54 228.635 135.569 222.401 118.335 222.401C101.1 222.401 87.129 228.635 87.129 236.325C87.129 244.014 101.1 250.248 118.335 250.248Z" fill="#363636"/>
<path d="M137.778 272.062C141.756 271.764 145.227 274.713 145.589 278.671L145.599 278.791L149.457 330.161C149.758 334.179 146.746 337.681 142.728 337.982C138.75 338.281 135.279 335.331 134.917 331.374L134.907 331.254L131.049 279.884C130.748 275.866 133.76 272.364 137.778 272.062Z" fill="#EBBAAA"/>
<path d="M105.672 271.915C109.661 271.938 112.884 275.158 112.925 279.131L112.925 279.252L112.627 330.75C112.604 334.779 109.319 338.026 105.29 338.003C101.301 337.98 98.0782 334.76 98.0368 330.786L98.0365 330.665L98.3347 279.168C98.3581 275.139 101.643 271.891 105.672 271.915Z" fill="#EBBAAA"/>
<path d="M83.4733 210.745H119.95L117.248 309.065L116.438 318.66L95.7673 317.547L88.1618 295.215L83.4733 210.745Z" fill="#363636"/>
<path d="M119.603 212.42H160.088L156.237 299.832L151.834 316.712L130.623 318.52L129.408 310.595L119.603 212.42Z" fill="#363636"/>
<path opacity="0.2" fill-rule="evenodd" clip-rule="evenodd" d="M86.787 247.221L93.937 227.193L98.1345 228.752L90.9845 247.221H86.787Z" fill="white"/>
<path opacity="0.2" fill-rule="evenodd" clip-rule="evenodd" d="M157.542 247.221L150.392 227.193L146.195 228.752L153.344 247.221H157.542Z" fill="white"/>
<path d="M67.6665 345.122C67.6665 333.447 77.1303 323.985 88.8045 323.985H91.9743H94.6895C94.6895 323.985 94.408 328.697 103.557 328.697C112.705 328.697 113.972 323.985 113.972 323.985H115.126C115.765 323.985 116.282 324.502 116.282 325.14V343.797C116.282 345.395 114.988 346.687 113.392 346.687H69.2323C68.3675 346.687 67.6665 345.987 67.6665 345.122Z" fill="#3B3F45"/>
<mask id="mask0_6844:39" style="mask-type:alpha" maskUnits="userSpaceOnUse" x="67" y="323" width="50" height="24">
<path fill-rule="evenodd" clip-rule="evenodd" d="M67.6665 345.122C67.6665 333.447 77.1303 323.985 88.8045 323.985H91.9743H98.0513H104.128H110.205H116.282V343.797C116.282 345.395 114.988 346.687 113.392 346.687H69.2323C68.3675 346.687 67.6665 345.987 67.6665 345.122Z" fill="white"/>
</mask>
<g mask="url(#mask0_6844:39)">
<path d="M73.3049 332.362C69.6599 330.3 71.0894 334.385 67.8142 336.117L60.8787 349.41H116.074C117.423 347.485 122.295 337.495 118.416 336.117C111.291 333.59 98.7352 342.33 93.5337 342.042C88.3319 341.752 73.4419 343.92 74.3164 339.297C75.3277 333.95 76.6282 334.24 73.3049 332.362Z" fill="#555D65"/>
<path d="M94.1383 335.085C92.4481 335.555 91.0856 335.492 90.3138 334.892C88.3256 333.33 89.5986 330.947 90.1386 330.015C89.1666 331.157 88.2006 332.302 87.4468 333.555C86.2583 335.507 85.7541 337.65 86.5558 339.025C87.9933 341.505 91.4486 340.36 93.6511 339.362L114.088 330.107L94.1383 335.085Z" fill="#7F8389"/>
</g>
<path d="M87.4941 323.172C87.7716 322.802 88.2878 322.717 88.6677 322.97L89.8712 323.828C89.9558 323.889 90.0304 323.943 90.0879 323.986L90.1204 324.01C91.6734 325.175 92.5222 326.235 92.5222 327.592C92.5222 328.152 92.0018 328.561 91.4639 328.438L91.4191 328.426L84.9048 326.582L87.0455 330.025C87.4652 330.7 86.8323 331.528 86.081 331.319L86.0392 331.306L79.7045 329.229L81.9614 332.441C82.2272 332.82 82.1483 333.337 81.7899 333.62L81.7504 333.649C81.3721 333.915 80.855 333.836 80.5721 333.478L80.5427 333.438L76.7859 328.091C76.315 327.42 76.9495 326.541 77.7231 326.756L77.7654 326.769L84.3143 328.916L82.2498 325.595C81.8393 324.935 82.4372 324.118 83.1801 324.292L83.2223 324.303L90.0643 326.241L90.0516 326.228C89.815 325.987 89.5211 325.733 89.1693 325.465L89.0801 325.397C88.8073 325.193 87.8442 324.519 87.6672 324.386C87.2842 324.098 87.2067 323.555 87.4941 323.172Z" fill="#7F8389"/>
<path fill-rule="evenodd" clip-rule="evenodd" d="M84.0258 317.173C84.6345 316.341 85.5159 315.89 86.5983 315.89C88.8199 315.89 90.4995 317.8 90.4995 320.367L90.5011 320.678L90.5167 321.632C90.5191 321.786 90.5202 321.902 90.5203 322.015L90.5181 322.311C90.5093 322.784 90.4741 323.13 90.3981 323.42C90.2967 323.806 90.1211 324.084 89.8564 324.26C89.5697 324.456 89.1683 324.554 88.6211 324.554C87.4738 324.554 86.1049 324.128 85.0385 323.42C83.836 322.621 83.1306 321.553 83.1306 320.367C83.1306 319.083 83.4425 317.966 84.0258 317.173ZM88.7656 320.367C88.7656 318.711 87.8094 317.624 86.5983 317.624C86.0709 317.624 85.7083 317.81 85.4238 318.198C85.0763 318.671 84.8645 319.429 84.8645 320.367C84.8645 320.904 85.2397 321.472 85.9977 321.975C86.7842 322.497 87.8205 322.82 88.6211 322.82C88.6579 322.82 88.692 322.82 88.7234 322.818L88.7511 322.817L88.7539 322.796C88.7723 322.647 88.7833 322.445 88.7859 322.177L88.7864 322.095C88.7866 322.029 88.7864 321.965 88.7859 321.894L88.7672 320.692L88.7656 320.367Z" fill="#7F8389"/>
<path fill-rule="evenodd" clip-rule="evenodd" d="M90.2735 322.534L90.5896 321.853L90.7878 321.418C91.5722 319.751 93.2545 319.015 94.7368 319.676C95.471 320.003 95.9338 320.571 96.0992 321.313C96.2583 322.022 96.1366 322.864 95.7532 323.725C95.4002 324.517 94.6043 325.02 93.5494 325.193C92.6144 325.347 91.5576 325.219 90.7761 324.871C90.397 324.702 90.1455 324.509 90.011 324.275L90.0123 324.274L89.9989 324.251C89.9743 324.209 89.9634 324.183 89.9434 324.126L89.9325 324.096C89.918 324.041 89.9126 324.021 89.9092 324.005L89.8997 323.947C89.8844 323.832 89.8876 323.71 89.9099 323.574C89.95 323.326 90.0482 323.043 90.2209 322.652C90.2391 322.611 90.2555 322.574 90.2735 322.534ZM91.8272 323.307L91.7875 323.397C92.2026 323.515 92.7148 323.557 93.1764 323.495L93.268 323.482C93.7957 323.395 94.0829 323.214 94.1695 323.02C94.4105 322.479 94.4784 322.008 94.4074 321.691C94.3609 321.483 94.2628 321.363 94.0309 321.259C93.4428 320.997 92.7302 321.317 92.3356 322.203L92.2806 322.325L91.8272 323.307Z" fill="#7F8389"/>
<path d="M178.032 344.997C178.032 333.322 168.569 323.86 156.894 323.86H153.725H151.009C151.009 323.86 151.291 328.572 142.142 328.572C132.994 328.572 131.727 323.86 131.727 323.86H130.573C129.934 323.86 129.417 324.377 129.417 325.015V343.672C129.417 345.27 130.711 346.562 132.307 346.562H176.467C177.331 346.562 178.032 345.862 178.032 344.997Z" fill="#3B3F45"/>
<mask id="mask1_6844:39" style="mask-type:alpha" maskUnits="userSpaceOnUse" x="129" y="323" width="50" height="24">
<path fill-rule="evenodd" clip-rule="evenodd" d="M178.032 344.997C178.032 333.322 168.569 323.86 156.894 323.86H153.725H147.648H141.571H135.494H129.417V343.672C129.417 345.27 130.711 346.562 132.307 346.562H176.467C177.331 346.562 178.032 345.862 178.032 344.997Z" fill="white"/>
</mask>
<g mask="url(#mask1_6844:39)">
<path d="M172.394 332.237C176.039 330.175 174.609 334.26 177.884 335.992L184.82 349.285H129.625C128.276 347.36 123.403 337.37 127.282 335.992C134.407 333.465 146.964 342.205 152.165 341.917C157.367 341.627 172.257 343.795 171.382 339.172C170.371 333.825 169.071 334.115 172.394 332.237Z" fill="#555D65"/>
<path d="M151.117 335.085C152.807 335.555 154.169 335.492 154.941 334.892C156.929 333.33 155.656 330.947 155.116 330.015C156.088 331.157 157.054 332.302 157.808 333.555C158.997 335.507 159.501 337.65 158.699 339.025C157.261 341.505 153.806 340.36 151.604 339.362L131.167 330.107L151.117 335.085Z" fill="#7F8389"/>
</g>
<path d="M156.991 322.874C157.374 322.587 157.917 322.664 158.205 323.047C158.492 323.43 158.415 323.973 158.032 324.261L157.912 324.348C157.607 324.567 156.914 325.054 156.65 325.249L156.619 325.272C156.266 325.537 155.969 325.786 155.726 326.024L155.634 326.116L162.476 324.178C163.225 323.966 163.844 324.767 163.471 325.433L163.449 325.47L161.384 328.791L167.933 326.644C168.712 326.388 169.368 327.251 168.937 327.929L168.913 327.966L165.156 333.313C164.881 333.705 164.34 333.799 163.948 333.524C163.57 333.258 163.469 332.745 163.71 332.357L163.737 332.316L165.994 329.104L159.66 331.181C158.904 331.429 158.25 330.617 158.631 329.937L158.653 329.9L160.794 326.457L154.28 328.301C153.741 328.454 153.206 328.065 153.178 327.514L153.177 327.467C153.177 326.139 153.99 325.094 155.482 323.958L155.647 323.834C156.006 323.571 156.854 322.977 156.991 322.874Z" fill="#7F8389"/>
<path fill-rule="evenodd" clip-rule="evenodd" d="M155.2 320.153C155.238 317.63 156.905 315.765 159.101 315.765C160.183 315.765 161.064 316.216 161.672 317.046C162.256 317.841 162.568 318.958 162.568 320.242C162.568 321.428 161.863 322.496 160.66 323.294C159.594 324.003 158.225 324.429 157.078 324.429C156.531 324.429 156.129 324.331 155.853 324.142C155.578 323.959 155.402 323.681 155.301 323.295C155.225 323.005 155.19 322.659 155.181 322.186L155.178 321.932C155.178 321.862 155.179 321.792 155.179 321.715L155.188 321.182L155.188 321.156C155.193 320.887 155.196 320.698 155.198 320.525L155.2 320.153ZM160.274 318.072C159.991 317.685 159.628 317.499 159.101 317.499C157.889 317.499 156.933 318.586 156.933 320.242C156.933 320.395 156.932 320.533 156.93 320.693L156.922 321.172L156.922 321.199C156.917 321.439 156.914 321.601 156.913 321.736L156.913 322.052C156.916 322.32 156.926 322.522 156.945 322.671L156.948 322.692L156.975 322.693L157.078 322.695C157.878 322.695 158.915 322.372 159.701 321.85C160.459 321.347 160.834 320.779 160.834 320.242C160.834 319.304 160.622 318.546 160.274 318.072Z" fill="#7F8389"/>
<path fill-rule="evenodd" clip-rule="evenodd" d="M150.962 319.55C150.228 319.878 149.765 320.446 149.599 321.188C149.441 321.897 149.562 322.739 149.946 323.6C150.299 324.392 151.095 324.895 152.151 325.068C153.084 325.222 154.141 325.094 154.922 324.747L154.996 324.713C155.165 324.632 155.307 324.546 155.422 324.452L155.459 324.42L155.465 324.417C155.477 324.407 155.487 324.397 155.498 324.385L155.514 324.371C155.585 324.301 155.643 324.227 155.688 324.149L155.684 324.147L155.704 324.122L155.769 323.953C155.79 323.895 155.792 323.883 155.795 323.85L155.801 323.808C155.814 323.699 155.811 323.582 155.789 323.447C155.752 323.218 155.664 322.958 155.514 322.61L155.411 322.377C155.371 322.289 155.321 322.182 155.23 321.988L155.217 321.962L154.985 321.456L154.947 321.372C154.179 319.649 152.467 318.88 150.962 319.55ZM153.363 322.078L153.488 322.353C153.527 322.437 153.577 322.546 153.656 322.715L153.669 322.743L153.858 323.151L153.911 323.272C153.469 323.398 152.916 323.437 152.432 323.357C151.903 323.27 151.616 323.089 151.529 322.895C151.289 322.354 151.221 321.883 151.291 321.567C151.338 321.358 151.436 321.238 151.669 321.134C152.256 320.872 152.969 321.193 153.363 322.078ZM154.418 323.15L154.936 322.85C154.508 322.963 154.442 322.98 154.384 323.04L154.351 323.078L154.418 323.15Z" fill="#7F8389"/>
<path d="M165.006 148.714C168.759 146.255 173.795 147.304 176.255 151.057C181.335 158.811 184.385 170.944 185.606 185.256C186.658 197.601 186.182 210.536 184.365 219.241C183.448 223.633 179.144 226.451 174.752 225.534C170.403 224.627 167.598 220.399 168.431 216.053L168.458 215.921C169.922 208.904 170.342 197.513 169.414 186.637C168.413 174.896 165.983 165.153 162.76 160.114L162.662 159.963C160.203 156.209 161.252 151.173 165.006 148.714Z" fill="#EBBAAA"/>
<path d="M100.197 120.698C113.885 118.709 119.199 131.612 118.976 145.442C118.768 158.339 107.761 168.41 94.8967 167.475L60.7057 164.989L51.2684 128.964L100.197 120.698Z" fill="#FE4066"/>
<path d="M164.732 126.634C155.576 116.267 139.313 116.563 130.541 127.258C122.36 137.231 124.245 152.03 134.663 159.634L162.353 179.846L192.845 158.467L164.732 126.634Z" fill="#FE4066"/>
<path d="M83.7285 145.409C84.5537 130.45 96.5505 118.674 111.232 118.413L130.735 118.065C146.091 117.792 158.805 130.176 159.25 145.84L160.376 185.462L160.858 235.531C160.858 235.531 135.144 237.061 120.644 237.061C106.144 237.061 80.8607 235.531 80.8607 235.531L81.4427 186.854L83.7285 145.409Z" fill="#FE4066"/>
<path d="M120.566 148.972C130.332 148.802 138.112 140.746 137.941 130.979C137.771 121.213 129.715 113.433 119.948 113.604C110.182 113.774 102.402 121.83 102.573 131.597C102.743 141.363 110.799 149.143 120.566 148.972Z" fill="#FE4066"/>
<path fill-rule="evenodd" clip-rule="evenodd" d="M121.125 190C127.821 190 133.25 184.571 133.25 177.875C133.25 171.179 127.821 165.75 121.125 165.75C114.429 165.75 109 171.179 109 177.875C109 184.571 114.429 190 121.125 190Z" fill="#FE4066"/>
<mask id="mask2_6844:39" style="mask-type:alpha" maskUnits="userSpaceOnUse" x="110" y="167" width="22" height="22">
<path fill-rule="evenodd" clip-rule="evenodd" d="M120.959 188.748C126.846 188.748 131.619 183.975 131.619 178.088C131.619 172.201 126.846 167.428 120.959 167.428C115.072 167.428 110.299 172.201 110.299 178.088C110.299 183.975 115.072 188.748 120.959 188.748Z" fill="white"/>
</mask>
<g mask="url(#mask2_6844:39)">
<path d="M118.174 165.103H129.741L119.741 191.073H108.174L118.174 165.103Z" fill="#FE4066"/>
</g>
<path d="M178.277 202.045L169.168 204.525L169.168 207.232H176.2L186.157 212.42L187.072 206.729L178.277 202.045Z" fill="black"/>
<path d="M177.25 206.419L178.314 203.25L186.822 207.721L186.407 211.219L177.25 206.419Z" fill="white" fill-opacity="0.3"/>
<rect x="108.329" y="110.372" width="23.498" height="30.7078" rx="11.749" transform="rotate(-1 108.329 110.372)" fill="#EBBAAA"/>
<path d="M151.891 89.2067C159.495 89.2067 164.996 80.5019 165.659 74.0502C166.323 67.5984 159.495 61.0817 151.891 61.0817C144.288 61.0817 138.124 66.8879 138.124 74.0502C138.124 81.2124 144.288 89.2067 151.891 89.2067Z" fill="#EBBAAA"/>
<path d="M90.2675 90.9441C82.6638 90.9441 77.1633 82.2393 76.4998 75.7876C75.8363 69.3358 82.6638 62.8191 90.2675 62.8191C97.8713 62.8191 104.035 68.6253 104.035 75.7876C104.035 82.9498 97.8713 90.9441 90.2675 90.9441Z" fill="#EBBAAA"/>
<path d="M83.6755 54.2639C83.6755 31.8611 100.545 13.7 121.354 13.7C142.163 13.7 159.032 31.8611 159.032 54.2639L156.481 85.6231C154.363 99.3289 149.443 110.703 140.61 116.266C136.859 118.628 137.388 119.943 132.14 119.943H110.286C103.465 119.943 103.335 117.43 99.073 113.329C92.334 106.845 88.4323 96.3916 86.2258 85.6234L83.6755 54.2639Z" fill="#F4D4C9"/>
<path d="M94.5888 58.9452L101.32 56.1653L116.331 60.9483C117.611 61.3561 118.318 62.724 117.91 64.0036C117.509 65.2612 116.181 65.9656 114.921 65.6025L114.855 65.5824L101.535 61.3384L96.4453 63.4405C95.2257 63.9442 93.8319 63.3829 93.2972 62.1859L93.2694 62.1211C92.7657 60.9016 93.327 59.5077 94.524 58.973L94.5888 58.9452Z" fill="#393939"/>
<path d="M126.252 60.9483L141.263 56.1653L147.994 58.9452C149.236 59.4579 149.826 60.8798 149.314 62.1211C148.81 63.3407 147.429 63.9323 146.203 63.4665L146.138 63.4405L141.048 61.3384L127.728 65.5824C126.471 65.9831 125.128 65.3073 124.695 64.0693L124.673 64.0036C124.272 62.746 124.948 61.4032 126.186 60.9703L126.252 60.9483Z" fill="#393939"/>
<path d="M118.659 67.6855L123.115 68.7997L119.506 83.2358C119.164 84.6048 120.178 85.9319 121.578 85.9725L121.644 85.9734H125.895V90.5668H121.644C117.266 90.5668 114.042 86.4937 115.019 82.2502L115.05 82.1215L118.659 67.6855Z" fill="#EBBAAA"/>
<path d="M99.3181 70.2405L99.3482 70.2302C102.98 69.0035 106.593 68.988 111.175 70.9555C111.977 71.2999 112.348 72.2292 112.004 73.0312C111.659 73.8332 110.73 74.2042 109.928 73.8598C106.167 72.2448 103.375 72.2336 100.485 73.1829L100.325 73.2368C100.058 73.3318 98.6756 73.841 98.3071 73.937C97.4625 74.157 96.5994 73.6506 96.3794 72.806C96.1643 71.9801 96.6436 71.1367 97.4546 70.8939L97.5104 70.8783C97.7133 70.8255 98.9852 70.3556 99.3181 70.2405Z" fill="#393939"/>
<path d="M130.54 71.4555C135.066 69.512 138.647 69.5035 142.234 70.6859L142.367 70.7302C142.634 70.8206 143.909 71.2919 144.181 71.3717L144.205 71.3783C145.049 71.5983 145.556 72.4613 145.336 73.3059C145.116 74.1506 144.253 74.657 143.408 74.437L143.335 74.4167C142.858 74.2761 141.488 73.7696 141.355 73.7248C138.421 72.7336 135.602 72.7214 131.787 74.3598C130.985 74.7042 130.056 74.3332 129.711 73.5312C129.367 72.7292 129.738 71.7999 130.54 71.4555Z" fill="#393939"/>
<path fill-rule="evenodd" clip-rule="evenodd" d="M107.386 94.6106V99.5606C107.386 107.181 113.563 113.356 121.181 113.356C128.801 113.356 134.976 107.181 134.976 99.5606V94.6106H107.386Z" fill="#393939"/>
<mask id="mask3_6844:39" style="mask-type:alpha" maskUnits="userSpaceOnUse" x="107" y="94" width="28" height="20">
<path fill-rule="evenodd" clip-rule="evenodd" d="M107.408 94.6056C107.393 94.8606 107.386 95.1183 107.386 95.3758V100.197C107.386 107.466 113.563 113.356 121.181 113.356C128.801 113.356 134.976 107.466 134.976 100.197V95.3758C134.976 95.1183 134.968 94.8606 134.953 94.6056H107.408Z" fill="white"/>
</mask>
<g mask="url(#mask3_6844:39)">
<path d="M121.181 117.779C125.775 117.779 129.5 115.752 129.5 113.251C129.5 110.75 125.775 108.723 121.181 108.723C116.586 108.723 112.861 110.75 112.861 113.251C112.861 115.752 116.586 117.779 121.181 117.779Z" fill="#FF6C6C"/>
</g>
<rect x="107.386" y="94.6106" width="27.5907" height="5.68665" fill="white"/>
<path d="M86.5223 158.07C85.4185 163.111 78.6624 166.522 71.4321 165.689C64.5634 164.898 59.7376 160.561 60.2185 155.807L60.2284 155.72L60.14 155.705C59.6368 155.622 59.0554 155.546 58.3981 155.478L58.217 155.46C51.2803 154.784 40.0728 155.398 22.2157 157.313C15.0001 158.086 8.1811 154.619 6.98507 149.569C5.78903 144.518 10.6689 139.797 17.8844 139.023L19.6977 138.831C39.0284 136.798 51.5395 136.159 61.5609 137.136C69.1985 137.88 75.4479 139.619 80.1402 142.917C85.7773 146.88 87.8023 152.223 86.5223 158.07Z" fill="#F8CCBE"/>
<path d="M118.335 250.248C135.569 250.248 149.54 244.014 149.54 236.325C149.54 228.635 135.569 222.401 118.335 222.401C101.1 222.401 87.129 228.635 87.129 236.325C87.129 244.014 101.1 250.248 118.335 250.248Z" fill="#363636"/>
<path d="M137.778 272.062C141.756 271.764 145.227 274.713 145.589 278.671L145.599 278.791L149.457 330.161C149.758 334.179 146.746 337.681 142.728 337.982C138.75 338.281 135.279 335.331 134.917 331.374L134.907 331.254L131.049 279.884C130.748 275.866 133.76 272.364 137.778 272.062Z" fill="#EBBAAA"/>
<path d="M105.672 271.915C109.661 271.938 112.884 275.158 112.925 279.131L112.925 279.252L112.627 330.75C112.604 334.779 109.319 338.026 105.29 338.003C101.301 337.98 98.0782 334.76 98.0368 330.786L98.0365 330.665L98.3347 279.168C98.3581 275.139 101.643 271.891 105.672 271.915Z" fill="#EBBAAA"/>
<path d="M83.4733 210.745H119.95L117.248 309.065L116.438 318.66L95.7673 317.547L88.1618 295.215L83.4733 210.745Z" fill="#363636"/>
<path d="M119.603 212.42H160.088L156.237 299.832L151.834 316.712L130.623 318.52L129.408 310.595L119.603 212.42Z" fill="#363636"/>
<path opacity="0.2" fill-rule="evenodd" clip-rule="evenodd" d="M86.787 247.221L93.937 227.193L98.1345 228.752L90.9845 247.221H86.787Z" fill="white"/>
<path opacity="0.2" fill-rule="evenodd" clip-rule="evenodd" d="M157.542 247.221L150.392 227.193L146.195 228.752L153.344 247.221H157.542Z" fill="white"/>
<path d="M67.6665 345.122C67.6665 333.447 77.1303 323.985 88.8045 323.985H91.9743H94.6895C94.6895 323.985 94.408 328.697 103.557 328.697C112.705 328.697 113.972 323.985 113.972 323.985H115.126C115.765 323.985 116.282 324.502 116.282 325.14V343.797C116.282 345.395 114.988 346.687 113.392 346.687H69.2323C68.3675 346.687 67.6665 345.987 67.6665 345.122Z" fill="#3B3F45"/>
<mask id="mask4_6844:39" style="mask-type:alpha" maskUnits="userSpaceOnUse" x="67" y="323" width="50" height="24">
<path fill-rule="evenodd" clip-rule="evenodd" d="M67.6665 345.122C67.6665 333.447 77.1303 323.985 88.8045 323.985H91.9743H98.0513H104.128H110.205H116.282V343.797C116.282 345.395 114.988 346.687 113.392 346.687H69.2323C68.3675 346.687 67.6665 345.987 67.6665 345.122Z" fill="white"/>
</mask>
<g mask="url(#mask4_6844:39)">
<path d="M73.3049 332.362C69.6599 330.3 71.0894 334.385 67.8142 336.117L60.8787 349.41H116.074C117.423 347.485 122.295 337.495 118.416 336.117C111.291 333.59 98.7352 342.33 93.5337 342.042C88.3319 341.752 73.4419 343.92 74.3164 339.297C75.3277 333.95 76.6282 334.24 73.3049 332.362Z" fill="#555D65"/>
<path d="M94.1383 335.085C92.4481 335.555 91.0856 335.492 90.3138 334.892C88.3256 333.33 89.5986 330.947 90.1386 330.015C89.1666 331.157 88.2006 332.302 87.4468 333.555C86.2583 335.507 85.7541 337.65 86.5558 339.025C87.9933 341.505 91.4486 340.36 93.6511 339.362L114.088 330.107L94.1383 335.085Z" fill="#7F8389"/>
</g>
<path d="M87.4941 323.172C87.7716 322.802 88.2878 322.717 88.6677 322.97L89.8712 323.828C89.9558 323.889 90.0304 323.943 90.0879 323.986L90.1204 324.01C91.6734 325.175 92.5222 326.235 92.5222 327.592C92.5222 328.152 92.0018 328.561 91.4639 328.438L91.4191 328.426L84.9048 326.582L87.0455 330.025C87.4652 330.7 86.8323 331.528 86.081 331.319L86.0392 331.306L79.7045 329.229L81.9614 332.441C82.2272 332.82 82.1483 333.337 81.7899 333.62L81.7504 333.649C81.3721 333.915 80.855 333.836 80.5721 333.478L80.5427 333.438L76.7859 328.091C76.315 327.42 76.9495 326.541 77.7231 326.756L77.7654 326.769L84.3143 328.916L82.2498 325.595C81.8393 324.935 82.4372 324.118 83.1801 324.292L83.2223 324.303L90.0643 326.241L90.0516 326.228C89.815 325.987 89.5211 325.733 89.1693 325.465L89.0801 325.397C88.8073 325.193 87.8442 324.519 87.6672 324.386C87.2842 324.098 87.2067 323.555 87.4941 323.172Z" fill="#7F8389"/>
<path fill-rule="evenodd" clip-rule="evenodd" d="M84.0258 317.173C84.6345 316.341 85.5159 315.89 86.5983 315.89C88.8199 315.89 90.4995 317.8 90.4995 320.367L90.5011 320.678L90.5167 321.632C90.5191 321.786 90.5202 321.902 90.5203 322.015L90.5181 322.311C90.5093 322.784 90.4741 323.13 90.3981 323.42C90.2967 323.806 90.1211 324.084 89.8564 324.26C89.5697 324.456 89.1683 324.554 88.6211 324.554C87.4738 324.554 86.1049 324.128 85.0385 323.42C83.836 322.621 83.1306 321.553 83.1306 320.367C83.1306 319.083 83.4425 317.966 84.0258 317.173ZM88.7656 320.367C88.7656 318.711 87.8094 317.624 86.5983 317.624C86.0709 317.624 85.7083 317.81 85.4238 318.198C85.0763 318.671 84.8645 319.429 84.8645 320.367C84.8645 320.904 85.2397 321.472 85.9977 321.975C86.7842 322.497 87.8205 322.82 88.6211 322.82C88.6579 322.82 88.692 322.82 88.7234 322.818L88.7511 322.817L88.7539 322.796C88.7723 322.647 88.7833 322.445 88.7859 322.177L88.7864 322.095C88.7866 322.029 88.7864 321.965 88.7859 321.894L88.7672 320.692L88.7656 320.367Z" fill="#7F8389"/>
<path fill-rule="evenodd" clip-rule="evenodd" d="M90.2735 322.534L90.5896 321.853L90.7878 321.418C91.5722 319.751 93.2545 319.015 94.7368 319.676C95.471 320.003 95.9338 320.571 96.0992 321.313C96.2583 322.022 96.1366 322.864 95.7532 323.725C95.4002 324.517 94.6043 325.02 93.5494 325.193C92.6144 325.347 91.5576 325.219 90.7761 324.871C90.397 324.702 90.1455 324.509 90.011 324.275L90.0123 324.274L89.9989 324.251C89.9743 324.209 89.9634 324.183 89.9434 324.126L89.9325 324.096C89.918 324.041 89.9126 324.021 89.9092 324.005L89.8997 323.947C89.8844 323.832 89.8876 323.71 89.9099 323.574C89.95 323.326 90.0482 323.043 90.2209 322.652C90.2391 322.611 90.2555 322.574 90.2735 322.534ZM91.8272 323.307L91.7875 323.397C92.2026 323.515 92.7148 323.557 93.1764 323.495L93.268 323.482C93.7957 323.395 94.0829 323.214 94.1695 323.02C94.4105 322.479 94.4784 322.008 94.4074 321.691C94.3609 321.483 94.2628 321.363 94.0309 321.259C93.4428 320.997 92.7302 321.317 92.3356 322.203L92.2806 322.325L91.8272 323.307Z" fill="#7F8389"/>
<path d="M178.032 344.997C178.032 333.322 168.569 323.86 156.894 323.86H153.725H151.009C151.009 323.86 151.291 328.572 142.142 328.572C132.994 328.572 131.727 323.86 131.727 323.86H130.573C129.934 323.86 129.417 324.377 129.417 325.015V343.672C129.417 345.27 130.711 346.562 132.307 346.562H176.467C177.331 346.562 178.032 345.862 178.032 344.997Z" fill="#3B3F45"/>
<mask id="mask5_6844:39" style="mask-type:alpha" maskUnits="userSpaceOnUse" x="129" y="323" width="50" height="24">
<path fill-rule="evenodd" clip-rule="evenodd" d="M178.032 344.997C178.032 333.322 168.569 323.86 156.894 323.86H153.725H147.648H141.571H135.494H129.417V343.672C129.417 345.27 130.711 346.562 132.307 346.562H176.467C177.331 346.562 178.032 345.862 178.032 344.997Z" fill="white"/>
</mask>
<g mask="url(#mask5_6844:39)">
<path d="M172.394 332.237C176.039 330.175 174.609 334.26 177.884 335.992L184.82 349.285H129.625C128.276 347.36 123.403 337.37 127.282 335.992C134.407 333.465 146.964 342.205 152.165 341.917C157.367 341.627 172.257 343.795 171.382 339.172C170.371 333.825 169.071 334.115 172.394 332.237Z" fill="#555D65"/>
<path d="M151.117 335.085C152.807 335.555 154.169 335.492 154.941 334.892C156.929 333.33 155.656 330.947 155.116 330.015C156.088 331.157 157.054 332.302 157.808 333.555C158.997 335.507 159.501 337.65 158.699 339.025C157.261 341.505 153.806 340.36 151.604 339.362L131.167 330.107L151.117 335.085Z" fill="#7F8389"/>
</g>
<path d="M156.991 322.874C157.374 322.587 157.917 322.664 158.205 323.047C158.492 323.43 158.415 323.973 158.032 324.261L157.912 324.348C157.607 324.567 156.914 325.054 156.65 325.249L156.619 325.272C156.266 325.537 155.969 325.786 155.726 326.024L155.634 326.116L162.476 324.178C163.225 323.966 163.844 324.767 163.471 325.433L163.449 325.47L161.384 328.791L167.933 326.644C168.712 326.388 169.368 327.251 168.937 327.929L168.913 327.966L165.156 333.313C164.881 333.705 164.34 333.799 163.948 333.524C163.57 333.258 163.469 332.745 163.71 332.357L163.737 332.316L165.994 329.104L159.66 331.181C158.904 331.429 158.25 330.617 158.631 329.937L158.653 329.9L160.794 326.457L154.28 328.301C153.741 328.454 153.206 328.065 153.178 327.514L153.177 327.467C153.177 326.139 153.99 325.094 155.482 323.958L155.647 323.834C156.006 323.571 156.854 322.977 156.991 322.874Z" fill="#7F8389"/>
<path fill-rule="evenodd" clip-rule="evenodd" d="M155.2 320.153C155.238 317.63 156.905 315.765 159.101 315.765C160.183 315.765 161.064 316.216 161.672 317.046C162.256 317.841 162.568 318.958 162.568 320.242C162.568 321.428 161.863 322.496 160.66 323.294C159.594 324.003 158.225 324.429 157.078 324.429C156.531 324.429 156.129 324.331 155.853 324.142C155.578 323.959 155.402 323.681 155.301 323.295C155.225 323.005 155.19 322.659 155.181 322.186L155.178 321.932C155.178 321.862 155.179 321.792 155.179 321.715L155.188 321.182L155.188 321.156C155.193 320.887 155.196 320.698 155.198 320.525L155.2 320.153ZM160.274 318.072C159.991 317.685 159.628 317.499 159.101 317.499C157.889 317.499 156.933 318.586 156.933 320.242C156.933 320.395 156.932 320.533 156.93 320.693L156.922 321.172L156.922 321.199C156.917 321.439 156.914 321.601 156.913 321.736L156.913 322.052C156.916 322.32 156.926 322.522 156.945 322.671L156.948 322.692L156.975 322.693L157.078 322.695C157.878 322.695 158.915 322.372 159.701 321.85C160.459 321.347 160.834 320.779 160.834 320.242C160.834 319.304 160.622 318.546 160.274 318.072Z" fill="#7F8389"/>
<path fill-rule="evenodd" clip-rule="evenodd" d="M150.962 319.55C150.228 319.878 149.765 320.446 149.599 321.188C149.441 321.897 149.562 322.739 149.946 323.6C150.299 324.392 151.095 324.895 152.151 325.068C153.084 325.222 154.141 325.094 154.922 324.747L154.996 324.713C155.165 324.632 155.307 324.546 155.422 324.452L155.459 324.42L155.465 324.417C155.477 324.407 155.487 324.397 155.498 324.385L155.514 324.371C155.585 324.301 155.643 324.227 155.688 324.149L155.684 324.147L155.704 324.122L155.769 323.953C155.79 323.895 155.792 323.883 155.795 323.85L155.801 323.808C155.814 323.699 155.811 323.582 155.789 323.447C155.752 323.218 155.664 322.958 155.514 322.61L155.411 322.377C155.371 322.289 155.321 322.182 155.23 321.988L155.217 321.962L154.985 321.456L154.947 321.372C154.179 319.649 152.467 318.88 150.962 319.55ZM153.363 322.078L153.488 322.353C153.527 322.437 153.577 322.546 153.656 322.715L153.669 322.743L153.858 323.151L153.911 323.272C153.469 323.398 152.916 323.437 152.432 323.357C151.903 323.27 151.616 323.089 151.529 322.895C151.289 322.354 151.221 321.883 151.291 321.567C151.338 321.358 151.436 321.238 151.669 321.134C152.256 320.872 152.969 321.193 153.363 322.078ZM154.418 323.15L154.936 322.85C154.508 322.963 154.442 322.98 154.384 323.04L154.351 323.078L154.418 323.15Z" fill="#7F8389"/>
<path d="M165.006 148.714C168.759 146.255 173.795 147.304 176.255 151.057C181.335 158.811 184.385 170.944 185.606 185.256C186.658 197.601 186.182 210.536 184.365 219.241C183.448 223.633 179.144 226.451 174.752 225.534C170.403 224.627 167.598 220.399 168.431 216.053L168.458 215.921C169.922 208.904 170.342 197.513 169.414 186.637C168.413 174.896 165.983 165.153 162.76 160.114L162.662 159.963C160.203 156.209 161.252 151.173 165.006 148.714Z" fill="#EBBAAA"/>
<path d="M100.197 120.698C113.885 118.709 119.199 131.612 118.976 145.442C118.768 158.339 107.761 168.41 94.8967 167.475L60.7057 164.989L51.2684 128.964L100.197 120.698Z" fill="#FE4066"/>
<path d="M164.732 126.634C155.576 116.267 139.313 116.563 130.541 127.258C122.36 137.231 124.245 152.03 134.663 159.634L162.353 179.846L192.845 158.467L164.732 126.634Z" fill="#FE4066"/>
<path d="M83.7285 145.409C84.5537 130.45 96.5505 118.674 111.232 118.413L130.735 118.065C146.091 117.792 158.805 130.176 159.25 145.84L160.376 185.462L160.858 235.531C160.858 235.531 135.144 237.061 120.644 237.061C106.144 237.061 80.8607 235.531 80.8607 235.531L81.4427 186.854L83.7285 145.409Z" fill="#FE4066"/>
<path d="M120.566 148.972C130.332 148.802 138.112 140.746 137.941 130.979C137.771 121.213 129.715 113.433 119.948 113.604C110.182 113.774 102.402 121.83 102.573 131.597C102.743 141.363 110.799 149.143 120.566 148.972Z" fill="#FE4066"/>
<path fill-rule="evenodd" clip-rule="evenodd" d="M121.125 190C127.821 190 133.25 184.571 133.25 177.875C133.25 171.179 127.821 165.75 121.125 165.75C114.429 165.75 109 171.179 109 177.875C109 184.571 114.429 190 121.125 190Z" fill="#FE4066"/>
<mask id="mask6_6844:39" style="mask-type:alpha" maskUnits="userSpaceOnUse" x="110" y="167" width="22" height="22">
<path fill-rule="evenodd" clip-rule="evenodd" d="M120.959 188.748C126.846 188.748 131.619 183.975 131.619 178.088C131.619 172.201 126.846 167.428 120.959 167.428C115.072 167.428 110.299 172.201 110.299 178.088C110.299 183.975 115.072 188.748 120.959 188.748Z" fill="white"/>
</mask>
<g mask="url(#mask6_6844:39)">
<path d="M118.174 165.103H129.741L119.741 191.073H108.174L118.174 165.103Z" fill="#FE4066"/>
</g>
<path d="M178.277 202.045L169.168 204.525L169.168 207.232H176.2L186.157 212.42L187.072 206.729L178.277 202.045Z" fill="black"/>
<path d="M177.25 206.419L178.314 203.25L186.822 207.721L186.407 211.219L177.25 206.419Z" fill="white" fill-opacity="0.3"/>
<rect x="108.329" y="110.372" width="23.498" height="30.7078" rx="11.749" transform="rotate(-1 108.329 110.372)" fill="#EBBAAA"/>
<path d="M151.891 89.2067C159.495 89.2067 164.996 80.5019 165.659 74.0502C166.323 67.5984 159.495 61.0817 151.891 61.0817C144.288 61.0817 138.124 66.8879 138.124 74.0502C138.124 81.2124 144.288 89.2067 151.891 89.2067Z" fill="#EBBAAA"/>
<path d="M90.2675 90.9441C82.6638 90.9441 77.1633 82.2393 76.4998 75.7876C75.8363 69.3358 82.6638 62.8191 90.2675 62.8191C97.8713 62.8191 104.035 68.6253 104.035 75.7876C104.035 82.9498 97.8713 90.9441 90.2675 90.9441Z" fill="#EBBAAA"/>
<path d="M83.6755 54.2639C83.6755 31.8611 100.545 13.7 121.354 13.7C142.163 13.7 159.032 31.8611 159.032 54.2639L156.481 85.6231C154.363 99.3289 149.443 110.703 140.61 116.266C136.859 118.628 137.388 119.943 132.14 119.943H110.286C103.465 119.943 103.335 117.43 99.073 113.329C92.334 106.845 88.4323 96.3916 86.2258 85.6234L83.6755 54.2639Z" fill="#F4D4C9"/>
<path d="M118.659 67.6855L123.115 68.7997L119.506 83.2358C119.164 84.6048 120.178 85.9319 121.578 85.9725L121.644 85.9734H125.895V90.5668H121.644C117.266 90.5668 114.042 86.4937 115.019 82.2502L115.05 82.1215L118.659 67.6855Z" fill="#EBBAAA"/>
<path d="M139.907 69.6567C141.538 69.6567 142.865 70.9589 142.906 72.5805L142.907 72.6567V77.1567C142.907 78.8136 141.563 80.1567 139.907 80.1567C138.275 80.1567 136.948 78.8546 136.908 77.233L136.907 77.1567V72.6567C136.907 70.9999 138.25 69.6567 139.907 69.6567Z" fill="black"/>
<path fill-rule="evenodd" clip-rule="evenodd" d="M107.386 94.6106V99.5606C107.386 107.181 113.563 113.356 121.181 113.356C128.801 113.356 134.976 107.181 134.976 99.5606V94.6106H107.386Z" fill="#393939"/>
<mask id="mask7_6844:39" style="mask-type:alpha" maskUnits="userSpaceOnUse" x="107" y="94" width="28" height="20">
<path fill-rule="evenodd" clip-rule="evenodd" d="M107.408 94.6056C107.393 94.8606 107.386 95.1183 107.386 95.3758V100.197C107.386 107.466 113.563 113.356 121.181 113.356C128.801 113.356 134.976 107.466 134.976 100.197V95.3758C134.976 95.1183 134.968 94.8606 134.953 94.6056H107.408Z" fill="white"/>
</mask>
<g mask="url(#mask7_6844:39)">
<path d="M121.181 117.779C125.775 117.779 129.5 115.752 129.5 113.251C129.5 110.75 125.775 108.723 121.181 108.723C116.586 108.723 112.861 110.75 112.861 113.251C112.861 115.752 116.586 117.779 121.181 117.779Z" fill="#FF6C6C"/>
</g>
<rect x="107.386" y="94.6106" width="27.5907" height="5.68665" fill="white"/>
<path d="M110.242 4.63733C116.432 2.91378 116.914 -0.220667 125.243 0.0122927C136.798 0.335501 142.084 5.68602 144.744 10.0365C147.41 9.27774 151.418 10.8864 155.493 13.3873C160.868 16.6854 162.867 22.5123 163.867 24.1373C165.998 27.6 166.482 33.2652 165.887 39.6801L165.867 39.8872C165.367 45.0872 163.993 53.9707 162.868 59.1372L162.743 59.0832C162.033 58.7823 160.714 58.2931 160.243 58.3872C159.618 58.5122 160.118 66.1373 158.368 66.1373C156.618 66.1373 158.368 51.5122 157.118 49.3872C155.868 47.2622 156.743 41.7625 149.993 38.3872L149.041 37.9123C145.37 36.0642 141.556 33.6888 140.661 23.5445C137.933 24.3714 133.995 22.5724 131.993 23.7623C128.243 25.991 129.118 32.2622 119.243 34.5122C111.243 36.335 102.243 35.0122 96.8677 38.1372C93.0358 40.3652 92.6265 46.4989 88.3871 49.2943L88.2427 49.3872C83.9552 52.0822 83.7494 59.0991 83.5076 61.0257L83.4927 61.1372C83.2427 62.8872 83.8677 65.2623 82.7427 65.2623C81.6439 65.2623 81.7376 61.2076 81.7425 59.9707L81.7427 59.8872C81.7427 59.3872 80.3677 60.8872 78.8677 61.1372C77.3677 61.3872 76.3675 54.0122 77.9927 45.7622C78.9832 40.734 69.2426 26.6372 86.2425 10.8873C94.146 3.56493 103.147 6.613 110.242 4.63733Z" fill="#45332B"/>
<path d="M84.7089 44.514C86.3377 40.4418 95.2061 37.5095 101.261 38.3114L101.444 38.3368L101.009 41.3052C96.1633 40.596 88.5067 43.0971 87.4943 45.6281C86.9968 46.8719 86.1673 48.1969 85.0368 49.6314C84.1584 50.7459 83.1156 51.9058 81.8812 53.1668L81.5531 53.4993C80.3034 54.7505 77.0042 57.8896 76.5655 58.3527C75.9419 59.0109 75.8503 59.6786 76.2102 60.5011C76.5889 61.3667 77.4486 62.2829 78.5352 62.979L78.6411 63.0456L77.062 65.5964C75.4425 64.5939 74.119 63.206 73.4617 61.7035C72.635 59.814 72.9037 57.8558 74.3876 56.2894L74.4983 56.1757C75.2904 55.3761 78.5514 52.2717 79.5585 51.2504C80.803 49.9882 81.836 48.8461 82.6806 47.7745C83.6482 46.5467 84.334 45.4512 84.7089 44.514Z" fill="#382922"/>
<path d="M126.66 14.4789C132.097 13.9392 138.513 14.0762 143.807 14.6675L144.15 14.7067L143.803 17.6865C138.646 17.0857 132.281 16.9358 126.956 17.4643L126.56 17.505C120.137 18.1892 115.702 19.82 114.108 22.2654C111.614 26.0947 107.253 28.9198 101.425 31.0712C99.1699 31.9036 96.8173 32.5931 94.1781 33.2391L93.6425 33.3684C92.3179 33.6817 89.1001 34.3958 88.6002 34.5243L86.8289 34.9835C85.8218 35.2493 85.3648 35.3861 84.6059 35.6341C80.3961 37.0096 78.2192 38.7687 78.1 41.3897L78.0032 43.5889C77.8736 46.3734 77.7465 47.7808 77.4512 49.1655L77.4183 49.3165C76.9351 51.4906 76.0466 53.0087 74.5135 53.8515L74.4226 53.9003L73.0306 51.2428L73.1086 51.1999C74.3146 50.5019 74.7552 48.626 75.01 43.3563L75.1031 41.2535C75.2081 38.9446 76.2759 37.0508 78.1158 35.564C79.5037 34.4426 81.2669 33.5857 83.4724 32.8491L84.0232 32.6694C84.7995 32.4208 85.3568 32.2648 86.7244 31.91L87.9213 31.6017C88.6471 31.4227 91.8097 30.7204 93.0084 30.4356L93.1291 30.4067C95.8046 29.7617 98.1571 29.0796 100.386 28.2569C105.598 26.3328 109.424 23.8724 111.515 20.7483L111.595 20.6278C113.876 17.126 119.178 15.2215 126.66 14.4789Z" fill="#382922"/>
<path d="M138.834 27.0142L141.619 28.1284C141.189 29.2041 140.771 30.9053 140.584 32.426C140.485 33.2357 140.454 33.9594 140.497 34.5324C140.531 35.0009 140.613 35.3134 140.676 35.4192L140.684 35.4315L140.693 35.4349L140.727 35.4542C140.805 35.4964 140.919 35.5401 141.073 35.5819L141.133 35.5974C141.478 35.6845 141.885 35.7416 142.647 35.8144L143.837 35.9256C144.966 36.0365 145.537 36.1206 146.318 36.2974L146.388 36.3132C148.408 36.7772 150.065 37.6396 151.387 39.103L151.481 39.2085L149.223 41.184C148.343 40.1788 147.212 39.5807 145.716 39.2371L145.543 39.1984C144.846 39.0463 144.279 38.9771 142.897 38.8502L142.327 38.7975C141.434 38.7118 140.928 38.6395 140.4 38.5065C139.476 38.2738 138.762 37.8837 138.267 37.2083C136.919 35.3698 137.474 30.5663 138.747 27.2364L138.834 27.0142Z" fill="#382922"/>
<rect x="1.67419" y="160.206" width="22.2033" height="23.862" rx="8.25" transform="rotate(-95.0187 1.67419 160.206)" fill="#F8CCBE"/>
<rect x="12" y="127.379" width="7.9622" height="19.6383" rx="3.9811" transform="rotate(-2.73012 12 127.379)" fill="#F8CCBE"/>
<path d="M104 69C105.631 69 106.959 70.3021 106.999 71.9238L107 72V76.5C107 78.1569 105.657 79.5 104 79.5C102.369 79.5 101.041 78.1979 101.001 76.5762L101 76.5V72C101 70.3431 102.343 69 104 69Z" fill="black"/>
<path d="M133.302 57.0006L147.326 57.3268C148.568 57.3557 149.552 58.3863 149.523 59.6286C149.495 60.8487 148.5 61.8193 147.288 61.8262L147.221 61.8256L133.198 61.4994C131.955 61.4705 130.972 60.4399 131.001 59.1976C131.029 57.9775 132.024 57.0069 133.236 57L133.302 57.0006Z" fill="#393939"/>
<path d="M97.3023 57.0006L111.326 57.3268C112.568 57.3557 113.552 58.3863 113.523 59.6286C113.495 60.8487 112.5 61.8193 111.288 61.8262L111.221 61.8256L97.1977 61.4994C95.9554 61.4705 94.9717 60.4399 95.0006 59.1976C95.029 57.9775 96.0236 57.0069 97.236 57L97.3023 57.0006Z" fill="#393939"/>
</svg>
